<svg xmlns="http://www.w3.org/2000/svg" viewBox="0 0 512 512" fill="none">
  <defs>
    <linearGradient id="bgGrad" x1="0%" y1="0%" x2="100%" y2="100%">
      <stop offset="0%" stop-color="#f59e0b" />
      <stop offset="100%" stop-color="#d97706" />
    </linearGradient>
    <linearGradient id="eggGrad" x1="0%" y1="0%" x2="0%" y2="100%">
      <stop offset="0%" stop-color="#ffffff" />
      <stop offset="100%" stop-color="#fef3c7" />
    </linearGradient>
    <linearGradient id="arrowGrad" x1="0%" y1="0%" x2="100%" y2="100%">
      <stop offset="0%" stop-color="#10b981" />
      <stop offset="100%" stop-color="#059669" />
    </linearGradient>
  </defs>
  <rect width="512" height="512" rx="112" fill="url(#bgGrad)" />
  <circle cx="256" cy="256" r="180" fill="#ffffff" fill-opacity="0.1" />
  <path 
    d="M256 96 C180 96, 140 180, 140 288 C140 376, 192 416, 256 416 C320 416, 372 376, 372 288 C372 180, 332 96, 256 96 Z" 
    fill="url(#eggGrad)" 
  />
  <path 
    d="M230 135 C200 150, 175 200, 170 260 C165 240, 175 170, 230 135 Z" 
    fill="#ffffff" 
    fill-opacity="0.6" 
  />
  <g transform="translate(300, 270)">
    <circle cx="50" cy="50" r="48" fill="url(#arrowGrad)" />
    <path d="M30 62 L44 48 L54 58 L70 38" stroke="#ffffff" stroke-width="7" stroke-linecap="round" stroke-linejoin="round"/>
    <path d="M56 38 L70 38 L70 52" stroke="#ffffff" stroke-width="7" stroke-linecap="round" stroke-linejoin="round"/>
  </g>
</svg>